# xmcd CD database file
#
# Track frame offsets:
#	150
#	20087
#	47705
#	71615
#	89367
#	109997
#	133425
#	147757
#	171985
#	185455
#	223980
#	239920
#	261602
#	287010
#	313065
#
# Disc length: 4387 seconds
#
# Revision: 2
# Processed by: cddbd v1.4PL0 Copyright (c) Steve Scherf et al.
# Submitted via: CDex 1.51
#
DISCID=0011210f
DTITLE=Jazz and Tzaz - 129 - Jazz Odyssey
DYEAR=2003
DGENRE=Jazz
TTITLE0=Marco Zurzolo - Affacciateve a acaletece 'nu sciore
TTITLE1=Mediana - Laughing
TTITLE2=Battista Lena - Tema de la Scuola
TTITLE3=Carla Marcotulli - Tempi Iieti
TTITLE4=Enrico Pieranunzi - Les amants
TTITLE5=Enrico Pieranunzi - Marc Johnson - Thiaki
TTITLE6=Enrico Rava - Enrico Pieranunzi - Coralie
TTITLE7=Paolo Frescu - Furio di Castri - John Taylor - Evening Song
TTITLE8=Gianluigi Trovesi - Gianni Coscia - Her Cab
TTITLE9=Gil Evans Orchestra - Orange was the Color of her Dress, then Blue Silk
TTITLE10=Isole - Ave Maria
TTITLE11=Kenny Wheeler - John Taylor - Moon
TTITLE12=Maria Pia De Vito - Voulez-vous?
TTITLE13=Richard Galliano - Gabriele Mirabassi - Reflections
TTITLE14=Danilo Rea - Il Songo di Doretta
EXTD=Jazz and Tzaz magazine, December 2003 issue. A compilation from EGEA Records CD ID: 0035 - 2 YEAR: 2003
EXTT0=
EXTT1=
EXTT2=
EXTT3=
EXTT4=
EXTT5=
EXTT6=
EXTT7=
EXTT8=
EXTT9=
EXTT10=
EXTT11=
EXTT12=
EXTT13=
EXTT14=
PLAYORDER=
